<?xml version="1.0" encoding="UTF-8"?>
<svg id="katman_1" xmlns="http://www.w3.org/2000/svg" version="1.1" viewBox="0 0 360 59.9">
  <!-- Generator: Adobe Illustrator 29.0.0, SVG Export Plug-In . SVG Version: 2.1.0 Build 186)  -->
  <path d="M161.2,28.8c-12.2,0-20.8,5.2-20.8,12.7v5.7c0,7.9,8.1,12.7,22.1,12.7s10.2-.6,15-1.8v-7.4c-3.1,1.3-7.7,2.1-12.4,2.1-8.3,0-13.4-2.3-13.4-5.9v-4.8c0-4,3.6-6.5,9.2-6.5s7.9,2,7.9,5.3v.5h-12.5v5.6c2.7,1.1,5.3,1.6,9.4,1.6,9.7,0,14.1-2.6,14.1-8.1s-7.2-11.5-18.6-11.5M203.3,39.9c-6.9,0-8.7-.4-8.7-1.8s2.8-2.1,7.6-2.1,12.2,1,17,3v-7.7c-5.2-1.6-11.2-2.5-16.3-2.5-11.9,0-18.6,3.7-18.6,10.1s5.6,9.3,18.4,9.3,8.8.4,8.8,1.9-3.2,2.4-8.6,2.4-14.2-1.2-18.6-2.7v7.7c5.6,1.5,12.1,2.4,17.7,2.4,12.9,0,19.9-3.7,19.9-10.6,0-6.2-6.1-9.3-18.5-9.3M17.8,28.8c-4.8,0-9,.6-13.8,1.8v7.4c3.1-1.2,6.9-1.9,11.2-1.9,8,0,13.3,2.3,13.3,5.8v4.8c0,4-3.8,6.5-9.5,6.5s-7.9-2-7.9-5.3v-.5h12.5v-5.6c-2.8-1.1-5.3-1.6-9.4-1.6C4.5,40.3,0,42.8,0,48.4s7.5,11.5,17.9,11.5,9.6-1.2,12.7-3.3c1.9,2.1,5,3.3,8.9,3.3v-18.4c0-7.9-8.2-12.7-21.7-12.7M46.3,59.1h11v-29.6h-11v29.6ZM75.3,29.5h-11v29.6h11v-20.7h12.8v-9.5c-5.8.6-9.3,2.1-12.7,5.5v-4.8h0ZM104,44.4v-6h12.1v-8.8h-12.1v-10.4c-6.9,0-11.1,3.5-11.1,9.1v16.5c0,10.4,5,15,15.2,15s5.7-.4,9.1-1.2v-7c-2.5.5-4.4.8-6.3.8-4.8,0-6.9-2.2-6.9-8.1M122.5,59.1h11v-29.6h-11v29.6Z" fill="#3d2eff"/>
  <path d="M293.2,29.6h66.8V0s-38.8-1.4-66.8,29.6" fill="#3d2eff"/>
  <path d="M293.2,3c-13.3,3.5-30.3,10.8-44.5,26.6h44.5V3Z" fill="#3d2eff"/>
  <path d="M248.7,11.9c-7.6,4.2-15.3,10-22.3,17.8h22.3V11.9Z" fill="#3d2eff"/>
</svg>